<svg id="Слой_1" data-name="Слой 1" xmlns="http://www.w3.org/2000/svg" viewBox="0 0 150 190"><defs><style>.cls-1{fill-rule:evenodd;}</style></defs><title>Монтажная область 65</title><path class="cls-1" d="M45.7,77.45c0-7.52,3.27-12,11.29-12,6.92,0,31,.25,36.39.25,7.47,0,10.64,3.05,10.64,11.91,0,4.48.28,61.57.28,61.57l-58.54.54S45.7,81.41,45.7,77.45ZM90,93.86c10.75,0,10.46-17.17-.79-17.17C78.14,76.69,77.2,93.86,90,93.86Zm-7.91,20.4,6.16-11.82-20.48-8-4,11.49Zm.75-50.92-.47-16.41-15.15.74-.93,15.86-4.91-.74-.66-23.85h28.4l-1.3,24.4Zm-25.44,79.4.39,4.69-6.59,0,0-4.94Zm41.4,0,.39,4.94-6.59-.2,0-4.94Z"/></svg>